<mxfile host="5aaa476e-d277-4478-9f1e-a217d35cef32" modified="2020-11-30T02:55:15.743Z" agent="5.0 (Windows NT 6.1; Win64; x64) AppleWebKit/537.36 (KHTML, like Gecko) Code/1.47.3 Chrome/78.0.3904.130 Electron/7.3.2 Safari/537.36" etag="xckWCABzR9lh7Mmj4BDX" version="13.1.3">
    <diagram id="mm59DPON8xHfet0JRgF6" name="References">
        <mxGraphModel dx="822" dy="1649" grid="0" gridSize="10" guides="1" tooltips="1" connect="1" arrows="1" fold="1" page="1" pageScale="1" pageWidth="827" pageHeight="1169" background="none" math="0" shadow="0">
            <root>
                <mxCell id="Gr6edN7ppNkgre0Q_z1g-0"/>
                <mxCell id="Gr6edN7ppNkgre0Q_z1g-1" parent="Gr6edN7ppNkgre0Q_z1g-0"/>
                <mxCell id="jqK3YuIMa9-6_V4bhgWz-0" value="&lt;table cellpadding=&quot;4&quot; cellspacing=&quot;0&quot; border=&quot;1&quot; style=&quot;font-size: 1em ; width: 100% ; height: 100%&quot;&gt;&lt;tbody&gt;&lt;tr&gt;&lt;th&gt;Type&lt;/th&gt;&lt;th&gt;Content&lt;/th&gt;&lt;/tr&gt;&lt;tr&gt;&lt;td&gt;Writing&lt;/td&gt;&lt;td&gt;&lt;ol&gt;&lt;li&gt;&lt;a href=&quot;https://bookdown.org/yihui/rmarkdown/&quot;&gt;R Markdown: The Definitive Guide&lt;br&gt;&lt;/a&gt;&lt;/li&gt;&lt;li&gt;&lt;a href=&quot;https://bookdown.org/yihui/bookdown/get-started.html&quot;&gt;Authoring Books and Technical Documents with R Markdown&lt;/a&gt;&lt;br&gt;&lt;/li&gt;&lt;li&gt;&lt;a href=&quot;https://yihui.org/knitr/options/&quot;&gt;Knitr Options&lt;/a&gt;&lt;/li&gt;&lt;li&gt;&lt;a href=&quot;https://yihui.org/tinytex/&quot;&gt;Tinytex&lt;/a&gt;&lt;/li&gt;&lt;/ol&gt;&lt;/td&gt;&lt;/tr&gt;&lt;tr&gt;&lt;td&gt;R-lang&lt;/td&gt;&lt;td&gt;&lt;ol&gt;&lt;li&gt;&lt;a href=&quot;https://rstudio-education.github.io/hopr/&quot;&gt;Hands-On Programming with R&lt;/a&gt;&lt;br&gt;&lt;/li&gt;&lt;/ol&gt;&lt;/td&gt;&lt;/tr&gt;&lt;/tbody&gt;&lt;/table&gt; " style="verticalAlign=top;align=left;overflow=fill;fontSize=12;fontFamily=Helvetica;html=1;fillColor=none;" parent="Gr6edN7ppNkgre0Q_z1g-1" vertex="1">
                    <mxGeometry x="10" y="-1161" width="435" height="168" as="geometry"/>
                </mxCell>
            </root>
        </mxGraphModel>
    </diagram>
</mxfile>
